<svg xmlns="http://www.w3.org/2000/svg" viewBox="0 0 760 220" role="img" aria-labelledby="title desc"><title id="title">CompassU</title><desc id="desc">CompassU compass logo with navy, teal, and gold compass rose</desc><defs><linearGradient id="u" x1="0" x2="1"><stop offset="0" stop-color="#1f7f95"/><stop offset="1" stop-color="#25a7b9"/></linearGradient></defs><g transform="translate(88 105)"><circle r="72" fill="none" stroke="#07355b" stroke-width="10" stroke-dasharray="94 13 94 13 94 13 94 13" transform="rotate(-45)"/><path d="M0-74 13-13 0 0-13-13Z" fill="#07355b"/><path d="M74 0 13 13 0 0 13-13Z" fill="#07355b"/><path d="M0 74-13 13 0 0 13 13Z" fill="#07355b"/><path d="M-74 0-13-13 0 0-13 13Z" fill="#07355b"/><path d="M50-50 16-15 8-7 22-10Z" fill="#2aa5b4"/><path d="M50 50 15 16 7 8 10 22Z" fill="#2aa5b4"/><path d="M-50 50-16 15-8 7-22 10Z" fill="#2aa5b4"/><path d="M-50-50-15-16-7-8-10-22Z" fill="#2aa5b4"/><circle r="17" fill="#d7a21f" stroke="#fff" stroke-width="6"/><circle r="6" fill="#fff"/></g><text x="185" y="112" font-family="Arial,Helvetica,sans-serif" font-size="76" font-weight="800" fill="#07355b">Compass</text><text x="482" y="112" font-family="Arial,Helvetica,sans-serif" font-size="76" font-weight="800" fill="url(#u)">U</text><text x="188" y="151" font-family="Arial,Helvetica,sans-serif" font-size="15" letter-spacing="4" fill="#07355b">NAVIGATE TODAY. BRIGHTER TOMORROWS.</text></svg>